<?xml version="1.0" encoding="UTF-8"?>
<svg version="1.1" xmlns="http://www.w3.org/2000/svg" width="3840" height="2160">
<path d="M0 0 C6.4585452 -0.14862761 12.89830691 -0.08281054 19.35644531 0.06201172 C20.75748656 0.08596222 22.15852825 0.10988626 23.55957031 0.13378906 C27.49187876 0.20769668 31.42073479 0.33141586 35.35089111 0.48007202 C36.90776069 0.53366014 38.46510388 0.57519408 40.02264404 0.60317993 C55.55953636 0.90788699 67.63505083 6.33898136 79.73144531 16.06201172 C80.39370117 16.57691162 81.05595703 17.09181152 81.73828125 17.62231445 C83.03808848 18.63618313 84.33330642 19.65597309 85.62304688 20.68261719 C87.12416179 21.87716638 88.64126419 23.05157277 90.16113281 24.22216797 C101.00689114 32.65968283 110.70242241 42.31480089 120.41894531 51.99951172 C121.34811768 52.92401123 122.27729004 53.84851074 123.23461914 54.80102539 C124.11142334 55.67992432 124.98822754 56.55882324 125.89160156 57.46435547 C126.67929932 58.25318115 127.46699707 59.04200684 128.27856445 59.85473633 C130.14478173 61.83716735 131.77772399 63.8475086 133.35644531 66.06201172 C132.07965096 49.04443929 128.81746312 33.2370855 122.27441406 17.43310547 C121.35644531 15.06201172 121.35644531 15.06201172 121.35644531 13.06201172 C129.1560641 13.68322029 136.44236998 15.91317468 143.91894531 18.12451172 C144.94680145 18.4265451 144.94680145 18.4265451 145.99542236 18.73468018 C180.74287806 28.96567926 215.47622168 42.18369863 245.35644531 63.06201172 C246.07171387 63.55846191 246.78698242 64.05491211 247.52392578 64.56640625 C255.78810466 70.33174975 263.89222045 76.11815407 271.21582031 83.06201172 C273.40467107 85.22112972 273.40467107 85.22112972 276.49316406 87.11669922 C280.843111 90.72678456 280.79226234 95.87580072 281.41894531 101.18701172 C281.72993448 103.36246201 282.04772776 105.5369497 282.37207031 107.71044922 C282.53126953 108.7877832 282.69046875 109.86511719 282.85449219 110.97509766 C286.09161351 130.88276398 293.94292404 149.90385226 301.60644531 168.43701172 C301.86869904 169.07129089 302.13095276 169.70557007 302.40115356 170.35906982 C305.47182216 177.90849665 305.47182216 177.90849665 309.0859375 185.20117188 C310.35644531 188.06201172 310.35644531 188.06201172 310.04394531 190.43701172 C309.81707031 190.97326172 309.59019531 191.50951172 309.35644531 192.06201172 C308.43863281 191.13259766 307.52082031 190.20318359 306.57519531 189.24560547 C300.34636614 182.96068369 294.14612766 176.74550987 287.35644531 171.06201172 C286.44121094 170.26923828 285.52597656 169.47646484 284.58300781 168.65966797 C275.79752151 161.07428604 266.63673076 154.02821238 257.35644531 147.06201172 C256.73012207 146.58763672 256.10379883 146.11326172 255.45849609 145.62451172 C247.07264082 139.27821544 238.44576807 133.40328279 229.58374023 127.73974609 C225.52592553 125.14419582 221.54735506 122.49531572 217.64160156 119.67529297 C211.99410183 115.69353929 206.03317483 112.34107056 199.98095703 109.02758789 C198.11788447 108.00578553 196.26241618 106.9710895 194.40722656 105.93505859 C181.90205915 98.09810897 181.90205915 98.09810897 168.35644531 94.06201172 C168.18628906 95.18736328 168.01613281 96.31271484 167.84082031 97.47216797 C165.27221961 113.98434247 161.34551614 128.30549983 153.35644531 143.06201172 C150.12622737 142.44071176 147.98396822 141.32218286 145.30175781 139.43701172 C144.52960937 138.90003662 143.75746094 138.36306152 142.96191406 137.80981445 C142.14335937 137.23303955 141.32480469 136.65626465 140.48144531 136.06201172 C138.75589005 134.86394513 137.02932144 133.66733676 135.30175781 132.47216797 C134.45516602 131.88580566 133.60857422 131.29944336 132.73632812 130.6953125 C127.97025664 127.42438326 123.0968946 124.32455109 118.20996094 121.23828125 C116.19472503 119.95938154 114.18958195 118.66547081 112.18457031 117.37060547 C94.58138176 106.05317589 76.56470765 95.39651245 57.79394531 86.12451172 C56.77800293 85.61017578 55.76206055 85.09583984 54.71533203 84.56591797 C43.57385133 79.20997331 34.97390583 81.21163083 23.10644531 83.56201172 C22.09534195 83.76124741 22.09534195 83.76124741 21.06381226 83.96450806 C-27.60612853 93.62486091 -73.47126573 112.31148786 -112.64355469 143.06201172 C-107.69187729 148.28161555 -102.08880506 152.62449671 -96.44238281 157.06591797 C-95.69794922 157.66533203 -94.95351562 158.26474609 -94.18652344 158.88232422 C-93.50614014 159.42131348 -92.82575684 159.96030273 -92.12475586 160.515625 C-90.64355469 162.06201172 -90.64355469 162.06201172 -90.64355469 165.06201172 C-92.16722656 165.60728516 -92.16722656 165.60728516 -93.72167969 166.16357422 C-112.81855719 173.09030149 -130.23164608 182.71037562 -145.64355469 196.06201172 C-146.44792969 196.75681641 -147.25230469 197.45162109 -148.08105469 198.16748047 C-159.09425986 207.12168988 -159.09425986 207.12168988 -167.64355469 218.06201172 C-166.84026733 218.12678711 -166.84026733 218.12678711 -166.02075195 218.19287109 C-158.52671584 218.86510641 -151.12180941 220.01269439 -143.69946289 221.21875 C-141.55468106 221.56628524 -139.408769 221.90614936 -137.26269531 222.24560547 C-135.89868938 222.4652006 -134.53475422 222.68523594 -133.17089844 222.90576172 C-131.94105225 223.10363281 -130.71120605 223.30150391 -129.4440918 223.50537109 C-126.64355469 224.06201172 -126.64355469 224.06201172 -125.64355469 225.06201172 C-125.42981775 226.78248829 -125.2222593 228.50399819 -125.04882812 230.22900391 C-123.30079746 247.45063342 -116.99513391 261.95234852 -105.64355469 275.06201172 C-105.0621875 275.79935547 -104.48082031 276.53669922 -103.88183594 277.29638672 C-86.81440909 298.17714321 -58.58238243 309.95828218 -32.34765625 312.8125 C-16.45896408 314.2785747 -0.59738904 314.10596972 15.32815552 313.55151367 C54.67188606 312.19294619 92.24795651 311.99167428 130.35644531 323.06201172 C128.00429491 320.53929072 125.64934944 318.01919474 123.29394531 315.49951172 C122.63716797 314.79503906 121.98039062 314.09056641 121.30371094 313.36474609 C118.11311723 309.95411144 114.89946814 306.58122664 111.58300781 303.29248047 C109.19894912 300.92800475 106.94724919 298.51665897 104.79394531 295.93701172 C102.64579077 293.42921139 100.49971972 291.24678472 97.91894531 289.18701172 C97.07332031 288.48576172 96.22769531 287.78451172 95.35644531 287.06201172 C95.35644531 286.40201172 95.35644531 285.74201172 95.35644531 285.06201172 C94.82148438 284.85705078 94.28652344 284.65208984 93.73535156 284.44091797 C90.38704766 282.50011127 87.9469814 279.77121145 85.29394531 276.99951172 C80.48754412 272.08645162 75.578904 267.55535133 70.14550781 263.32763672 C68.09301227 261.66034342 66.25250371 260.01858743 64.37988281 258.17138672 C55.98896335 250.07854142 48.85267202 247.91480247 37.35644531 247.06201172 C36.66437988 246.99868652 35.97231445 246.93536133 35.25927734 246.87011719 C27.03376585 246.1328434 18.81790969 246.03744794 10.56347656 246.07763672 C9.8709227 246.08043137 9.17836884 246.08322601 8.46482849 246.08610535 C5.00561322 246.10216554 1.54744956 246.13180332 -1.91137695 246.1862793 C-29.9414271 246.44190417 -52.91957165 238.10669903 -76.89355469 224.18701172 C-77.86502441 223.62763916 -78.83649414 223.0682666 -79.83740234 222.49194336 C-81.17230713 221.69518188 -81.17230713 221.69518188 -82.53417969 220.88232422 C-83.32856445 220.41068848 -84.12294922 219.93905273 -84.94140625 219.453125 C-85.50311523 218.99405762 -86.06482422 218.53499023 -86.64355469 218.06201172 C-86.64355469 215.06201172 -86.64355469 215.06201172 -85.30761719 213.44091797 C-74.89161018 204.16229104 -62.89037448 196.67316607 -50.64355469 190.06201172 C-49.69609375 189.53736328 -48.74863281 189.01271484 -47.77246094 188.47216797 C-31.60744997 179.98369189 -11.96130548 172.32060131 6.00341797 177.88134766 C8.83089189 178.84752479 11.62585592 179.87553501 14.41894531 180.93701172 C15.44971191 181.32775879 16.48047852 181.71850586 17.54248047 182.12109375 C34.78937898 188.80983653 51.24410171 196.8853578 66.80957031 206.88232422 C69.56248621 208.63378338 72.25728028 209.99291991 75.35644531 211.06201172 C75.89269531 210.57732422 76.42894531 210.09263672 76.98144531 209.59326172 C87.81117583 200.33099219 104.04010608 190.92904243 118.66894531 190.81201172 C119.55582031 190.89451172 120.44269531 190.97701172 121.35644531 191.06201172 C119.91682476 194.20440928 118.10109882 197.01469786 116.18261719 199.88427734 C108.81290081 210.94484355 104.13354141 221.46497848 105.35644531 235.06201172 C106.52579161 240.35887202 109.0163685 243.09118406 113.04394531 246.49951172 C114.13748958 247.46050517 115.22994326 248.42274108 116.32128906 249.38623047 C117.10995361 250.07531494 117.10995361 250.07531494 117.91455078 250.77832031 C119.72042433 252.38605534 121.42070864 254.07934038 123.10644531 255.81201172 C125.3437745 258.10301928 127.66539779 260.21303804 130.10644531 262.28466797 C134.2244416 265.86787179 137.92536676 269.72518147 141.60644531 273.74951172 C146.26470947 278.78623063 150.9708495 283.7452161 155.85644531 288.56201172 C159.60184667 292.26341424 163.20535167 296.02984987 166.62207031 300.03857422 C170.11860809 304.11786829 173.75434179 308.07601054 177.35644531 312.06201172 C178.49082031 311.67013672 179.62519531 311.27826172 180.79394531 310.87451172 C219.01503337 298.27349675 261.47646707 294.69110955 300.35644531 307.06201172 C301.31550781 307.36623047 302.27457031 307.67044922 303.26269531 307.98388672 C305.30242712 308.65120639 307.33136864 309.3514585 309.35644531 310.06201172 C307.62872275 308.16484526 305.89931797 306.26925867 304.16894531 304.37451172 C303.68619141 303.8440625 303.2034375 303.31361328 302.70605469 302.76708984 C294.54454759 293.83872974 285.56308424 285.88867891 276.35644531 278.06201172 C275.79248047 277.58103027 275.22851562 277.10004883 274.64746094 276.60449219 C271.68087305 274.07193839 271.68087305 274.07193839 268.35644531 272.06201172 C268.35644531 271.40201172 268.35644531 270.74201172 268.35644531 270.06201172 C267.77467529 269.7888916 267.19290527 269.51577148 266.59350586 269.234375 C264.39293748 268.08113596 262.53718168 266.80861951 260.56347656 265.30419922 C259.85489502 264.76529053 259.14631348 264.22638184 258.41625977 263.67114258 C255.38920849 261.33533104 252.36780373 258.99284501 249.36035156 256.63183594 C247.73359289 255.35746237 246.0937931 254.09974854 244.45019531 252.84716797 C239.26616188 248.64845596 236.75497134 244.41248651 233.98925781 238.38232422 C228.74221423 227.71249875 221.10162892 218.20986063 213.82299805 208.87182617 C210.82796718 205.02819554 208.00056447 201.15592567 205.35644531 197.06201172 C221.11493403 199.28195755 237.64532076 210.4975852 249.33300781 220.59326172 C251.3443659 222.35572587 251.3443659 222.35572587 254.35644531 222.06201172 C256.2283327 220.32500611 256.2283327 220.32500611 258.16894531 218.06201172 C265.71222358 210.26031772 275.80175769 204.61556517 286.35644531 202.06201172 C291.51963779 202.75439385 294.21225117 206.1682925 297.35644531 210.06201172 C303.40036702 218.8850077 308.01202609 228.33301913 309.35644531 239.06201172 C308.29032091 242.48839997 306.04716005 244.6694382 303.54394531 247.18701172 C302.8775 247.87021484 302.21105469 248.55341797 301.52441406 249.25732422 C299.22509247 251.17135409 297.1750978 252.10770355 294.35644531 253.06201172 C300.06978404 260.50948036 306.28937997 267.13125545 312.96801758 273.70483398 C316.77215024 277.45500048 320.41220227 281.25921996 323.86035156 285.34326172 C326.52834565 288.4083202 329.44493594 291.23014849 332.35644531 294.06201172 C333.90156991 287.22401349 334.87922867 280.38098883 335.65869141 273.42138672 C336.25439545 268.26611144 336.25439545 268.26611144 337.35644531 266.06201172 C338.01644531 266.06201172 338.67644531 266.06201172 339.35644531 266.06201172 C340.64294646 267.76983636 341.84072526 269.5447578 342.99707031 271.34326172 C343.71185547 272.44283203 344.42664062 273.54240234 345.16308594 274.67529297 C345.71234741 275.52631592 345.71234741 275.52631592 346.27270508 276.39453125 C347.88744149 278.87902093 349.55214923 281.32885593 351.21582031 283.78076172 C364.04003907 302.80294576 375.74043866 322.3283717 386.87060547 342.38525391 C387.79027437 344.04204817 388.7136875 345.69677753 389.64306641 347.34814453 C403.92695275 372.8079305 415.35686806 400.33006867 424.35644531 428.06201172 C424.73849121 429.23296387 425.12053711 430.40391602 425.51416016 431.61035156 C453.30718704 517.85133452 454.13902273 607.6281833 418.35644531 741.06201172 C415.40750892 739.64661342 413.33383659 738.28701947 411.04394531 735.93701172 C410.5115625 735.39818359 409.97917969 734.85935547 409.43066406 734.30419922 C407.60873631 732.33473307 405.84267191 730.33294134 404.08300781 728.30810547 C400.49932368 724.19482454 396.79297346 720.21186708 393.04394531 716.24951172 C387.06673889 709.92561449 381.19530951 703.51353656 375.35644531 697.06201172 C375.22181885 698.1973938 375.22181885 698.1973938 375.08447266 699.35571289 C369.02843646 749.54237901 355.96906958 798.14876981 332.35644531 843.06201172 C331.93024902 843.8825 331.50405273 844.70298828 331.06494141 845.54833984 C315.02819672 876.29816141 294.64058514 903.88498834 271.01269531 929.18310547 C268.95450895 931.41381627 266.98404404 933.66842371 265.04394531 935.99951172 C259.91477422 941.93129149 253.94971133 947.10284142 248.17529297 952.39160156 C246.58495218 953.85215347 245.00529929 955.32286426 243.43066406 956.80029297 C236.99687944 962.77656401 230.25123743 968.22925956 223.29248047 973.57177734 C221.25837524 975.1374997 219.23489765 976.7163271 217.21191406 978.29638672 C208.18433365 985.31348497 198.95522356 991.85177855 189.35644531 998.06201172 C188.36644531 998.72201172 187.37644531 999.38201172 186.35644531 1000.06201172 C185.36644531 1000.06201172 184.37644531 1000.06201172 183.35644531 1000.06201172 C171.46205813 955.85972556 171.46205813 955.85972556 166.35644531 936.06201172 C162.40059895 936.06201172 160.39855697 937.92103393 157.29394531 940.12451172 C86.81563761 988.41881487 -1.93415098 1012.21996134 -86.96923828 1010.14746094 C-89.92069562 1010.07882239 -92.86736479 1010.04503004 -95.81933594 1010.03466797 C-121.01993194 1009.65250014 -147.46326169 1003.69819112 -171.64355469 997.06201172 C-172.59794434 996.80339355 -173.55233398 996.54477539 -174.53564453 996.27832031 C-194.5924549 990.75856186 -213.43206553 982.78656838 -232.08105469 973.62451172 C-233.64617798 972.86231323 -233.64617798 972.86231323 -235.24291992 972.0847168 C-236.19884033 971.60413818 -237.15476074 971.12355957 -238.13964844 970.62841797 C-238.98712646 970.2050415 -239.83460449 969.78166504 -240.70776367 969.34545898 C-242.64355469 968.06201172 -242.64355469 968.06201172 -243.64355469 965.06201172 C-243.46250916 963.16160583 -243.46250916 963.16160583 -243.02612305 960.98168945 C-242.86501541 960.15486664 -242.70390778 959.32804382 -242.53791809 958.47616577 C-242.35492661 957.57508087 -242.17193512 956.67399597 -241.98339844 955.74560547 C-241.6003869 953.78547105 -241.21775409 951.8252626 -240.83544922 949.86499023 C-240.63066956 948.82819122 -240.42588989 947.79139221 -240.21490479 946.72317505 C-223.35744937 860.98877025 -216.09870395 771.97544914 -241.79589844 687.09716797 C-242.64355469 684.06201172 -242.64355469 684.06201172 -242.64355469 681.06201172 C-243.30355469 681.06201172 -243.96355469 681.06201172 -244.64355469 681.06201172 C-244.88074219 681.75423828 -245.11792969 682.44646484 -245.36230469 683.15966797 C-246.88314803 686.60474909 -248.92166577 689.48621279 -251.14355469 692.49951172 C-252.05519639 693.75458688 -252.96664976 695.00979885 -253.87792969 696.26513672 C-254.34134766 696.9 -254.80476563 697.53486328 -255.28222656 698.18896484 C-256.94191971 700.47253116 -258.57547661 702.77385644 -260.20727539 705.07739258 C-270.44863463 719.51309322 -280.92829652 733.70358056 -292.21972656 747.33837891 C-294.23195942 749.77431237 -296.21663218 752.23243647 -298.20605469 754.68701172 C-307.02544682 765.44118823 -316.15026765 775.89663357 -325.64355469 786.06201172 C-326.26311035 786.72668457 -326.88266602 787.39135742 -327.52099609 788.07617188 C-348.22554894 810.26427535 -348.22554894 810.26427535 -357.40527344 818.10107422 C-359.69425643 820.10643104 -361.90973301 822.18095528 -364.12451172 824.26757812 C-388.38908899 847.06201172 -388.38908899 847.06201172 -394.64355469 847.06201172 C-416.26789632 810.7711606 -427.44845295 767.77684231 -432.64355469 726.06201172 C-432.7663681 725.09442932 -432.7663681 725.09442932 -432.8916626 724.1072998 C-439.65043245 670.74527752 -441.04552347 616.79190989 -434.76855469 563.31201172 C-434.6193457 562.01134766 -434.47013672 560.71068359 -434.31640625 559.37060547 C-431.63029011 538.03548255 -431.63029011 538.03548255 -427.64355469 530.06201172 C-428.17526779 530.22550613 -428.7069809 530.38900055 -429.25480652 530.55744934 C-474.60471523 544.49893008 -474.60471523 544.49893008 -495.57095337 550.78353882 C-497.15549031 551.25919388 -498.73946066 551.73674064 -500.32284546 552.21621704 C-502.50760809 552.8772183 -504.6943534 553.53117126 -506.88183594 554.18310547 C-508.09911377 554.54847412 -509.3163916 554.91384277 -510.57055664 555.2902832 C-513.64355469 556.06201172 -513.64355469 556.06201172 -517.64355469 556.06201172 C-517.16213859 523.7633679 -508.54249953 492.55746242 -498.64355469 462.06201172 C-498.04317383 460.20962891 -498.04317383 460.20962891 -497.43066406 458.31982422 C-492.15700522 442.2006602 -486.18533593 426.5989365 -479.08642578 411.19628906 C-477.58552379 407.93595408 -476.10754341 404.66585115 -474.63183594 401.39404297 C-466.91381803 384.36893077 -458.85856683 367.61764046 -448.77441406 351.84814453 C-447.48670521 349.81427623 -446.22904938 347.76320722 -444.97167969 345.71044922 C-435.51435879 330.36379667 -425.10964364 315.77988347 -413.33886719 302.11669922 C-411.53748359 300.37742201 -411.53748359 300.37742201 -411.64355469 299.06201172 C-412.61408279 298.91500572 -412.61408279 298.91500572 -413.60421753 298.76502991 C-420.32026336 297.74707313 -427.0355804 296.7244104 -433.75048828 295.69897461 C-436.2587667 295.31657347 -438.76723028 294.93538483 -441.27587891 294.55541992 C-444.87549065 294.01000265 -448.4744205 293.46027097 -452.07324219 292.90966797 C-453.76391312 292.65492455 -453.76391312 292.65492455 -455.48873901 292.39503479 C-456.52966705 292.23494431 -457.57059509 292.07485382 -458.64306641 291.90991211 C-460.02206619 291.70006432 -460.02206619 291.70006432 -461.42892456 291.48597717 C-463.64355469 291.06201172 -463.64355469 291.06201172 -465.64355469 290.06201172 C-461.54429749 279.46726682 -455.82382498 269.66956246 -450.01855469 259.93701172 C-449.66973236 259.35074005 -449.32091003 258.76446838 -448.96151733 258.16043091 C-431.36396446 228.62098438 -411.02757494 200.95664473 -387.87402344 175.53857422 C-386.65938798 174.18992469 -385.4509175 172.83515315 -384.27612305 171.45166016 C-378.99497335 165.26671941 -373.29186065 159.52418711 -367.54418945 153.77734375 C-365.81204592 152.04297857 -364.08810158 150.30071581 -362.36425781 148.55810547 C-361.26383447 147.45475385 -360.16294053 146.35187133 -359.06152344 145.24951172 C-358.54696091 144.72776367 -358.03239838 144.20601562 -357.50224304 143.66845703 C-353.87242347 140.06201172 -353.87242347 140.06201172 -351.64355469 140.06201172 C-351.64355469 139.40201172 -351.64355469 138.74201172 -351.64355469 138.06201172 C-350.1766491 136.72929292 -348.64032968 135.47287303 -347.08105469 134.24951172 C-343.1352826 131.10193017 -339.29139795 127.89478216 -335.51806641 124.54321289 C-326.6441459 116.67720332 -317.24849287 109.59046324 -307.69555664 102.57324219 C-305.66938765 101.08103682 -303.6544871 99.57466751 -301.64355469 98.06201172 C-300.98355469 98.39201172 -300.32355469 98.72201172 -299.64355469 99.06201172 C-300.1140625 100.07779297 -300.58457031 101.09357422 -301.06933594 102.14013672 C-313.58947813 129.63817799 -314.53862924 161.34250038 -304.39355469 189.81201172 C-296.7219089 210.05115696 -283.52557497 227.5901938 -263.64355469 237.06201172 C-264.13984375 236.07845703 -264.63613281 235.09490234 -265.14746094 234.08154297 C-279.12120593 205.78098834 -288.60662593 171.15111192 -279.03027344 139.84716797 C-272.76924265 121.92315813 -262.69158124 107.88493397 -245.39355469 99.31201172 C-225.75530707 90.94296948 -204.92060594 93.09471217 -185.46166992 100.57910156 C-177.81990747 103.66995967 -170.50478419 107.48785872 -163.64355469 112.06201172 C-166.75838294 101.70445175 -173.926202 92.43167874 -180.64355469 84.06201172 C-181.30355469 83.73201172 -181.96355469 83.40201172 -182.64355469 83.06201172 C-182.64355469 82.40201172 -182.64355469 81.74201172 -182.64355469 81.06201172 C-183.30355469 81.06201172 -183.96355469 81.06201172 -184.64355469 81.06201172 C-184.64355469 80.40201172 -184.64355469 79.74201172 -184.64355469 79.06201172 C-185.46726562 78.69849609 -185.46726562 78.69849609 -186.30761719 78.32763672 C-189.16159877 76.78133232 -191.49052752 74.84828566 -194.01855469 72.81201172 C-205.48704087 63.92908277 -218.41413518 60.41719453 -232.64355469 59.06201172 C-231.64355469 56.06201172 -231.64355469 56.06201172 -228.47949219 54.25732422 C-226.99876832 53.55389859 -225.51103698 52.86513223 -224.01855469 52.18701172 C-222.76739868 51.61043823 -222.76739868 51.61043823 -221.4909668 51.0222168 C-218.55017774 49.68272532 -215.5985679 48.36981862 -212.64355469 47.06201172 C-211.53544434 46.56846191 -210.42733398 46.07491211 -209.28564453 45.56640625 C-164.11103638 25.60176167 -115.74354389 11.05173753 -66.64355469 5.06201172 C-65.54071136 4.92629761 -65.54071136 4.92629761 -64.41558838 4.7878418 C-42.94249885 2.15978702 -21.63139069 0.50742272 0 0 Z M85.03271484 392.46386719 C82.75194559 393.82583723 80.46283381 395.17048083 78.16503906 396.50341797 C61.54539491 406.19511039 42.79906891 417.19175975 29.35644531 431.06201172 C35.29302979 442.64215592 41.32581046 454.14361479 47.79394531 465.43701172 C52.34342845 473.38483841 56.67249016 481.41593485 60.85644531 489.56201172 C66.59608344 500.73438343 72.68751719 511.67673147 78.93847656 522.56982422 C80.78544133 525.81600473 82.58513263 529.08732782 84.37597656 532.36474609 C85.24334509 534.03510599 85.24334509 534.03510599 86.35644531 535.06201172 C124.27565919 537.2359909 159.15642752 517.02666923 189.35644531 496.06201172 C189.96987793 495.64016602 190.58331055 495.21832031 191.21533203 494.78369141 C201.83584958 487.46968296 212.08488841 479.7486627 222.20507812 471.75927734 C224.32180482 470.08934044 226.44364731 468.42614774 228.56738281 466.76513672 C234.14545504 462.6206201 234.14545504 462.6206201 239.35644531 458.06201172 C239.45062304 455.97582149 239.47387409 453.88640695 239.4699707 451.7980957 C239.47018974 450.81764282 239.47018974 450.81764282 239.47041321 449.81738281 C239.46971414 447.64759044 239.46192209 445.47788293 239.45410156 443.30810547 C239.45223736 441.80737861 239.45081347 440.30665115 239.44981384 438.80592346 C239.44598884 434.84882946 239.43615871 430.89177194 239.42510986 426.93469238 C239.41489537 422.89966323 239.41031614 418.86462819 239.40527344 414.82958984 C239.39453642 406.90704703 239.37746021 398.98453391 239.35644531 391.06201172 C238.62120636 390.72803879 237.88596741 390.39406586 237.12844849 390.04997253 C236.15326263 389.60688248 235.17807678 389.16379242 234.17333984 388.70727539 C232.73016891 388.05162849 232.73016891 388.05162849 231.25784302 387.38273621 C187.97444302 367.68000942 187.97444302 367.68000942 176.35644531 356.06201172 C145.30450612 356.06201172 110.83422496 377.01228592 85.03271484 392.46386719 Z M323.66113281 362.05981445 C312.82524573 370.94429687 300.994564 378.45252871 289.29394531 386.13012695 C288.32457031 386.76764893 287.35519531 387.4051709 286.35644531 388.06201172 C285.32416306 388.62800079 284.2918808 389.19398987 283.22831726 389.77713013 C280.11483069 391.79171355 280.11483069 391.79171355 279.54743958 395.03709412 C279.52155258 396.1970137 279.49566559 397.35693329 279.46899414 398.55200195 C279.42748734 399.87115097 279.38598053 401.19029999 279.34321594 402.54942322 C279.33071478 403.98979716 279.32087037 405.43019625 279.31347656 406.87060547 C279.2916318 408.35833294 279.26905216 409.84604978 279.24577332 411.33375549 C279.20532998 414.45688025 279.1902226 417.5790197 279.18969727 420.70239258 C279.18572704 423.88675612 279.13745709 427.06524594 279.04614258 430.24829102 C277.58961524 449.79817501 277.58961524 449.79817501 284.91520691 466.87306213 C287.57612163 469.251673 290.34807576 471.13718581 293.35644531 473.06201172 C295.48583984 475.23193359 295.48583984 475.23193359 296.98144531 477.06201172 C297.50351563 477.67947266 298.02558594 478.29693359 298.56347656 478.93310547 C299.15515625 479.63564453 299.74683594 480.33818359 300.35644531 481.06201172 C301.1853125 482.00173828 302.01417969 482.94146484 302.86816406 483.90966797 C314.17291482 496.80765201 322.61995751 510.79459497 330.35644531 526.06201172 C345.25905573 511.67205314 347.33026384 479.85805787 347.67857361 460.27548218 C347.87781451 444.33391869 347.39412243 428.75568019 344.35644531 413.06201172 C344.10701172 411.69858643 344.10701172 411.69858643 343.85253906 410.30761719 C340.59546396 392.74655391 335.65991592 375.39275345 328.35644531 359.06201172 C326.39643902 359.06201172 325.10759524 360.86672086 323.66113281 362.05981445 Z M217.16894531 536.12451172 C187.76513238 560.37117153 152.80534805 581.08109802 115.35644531 589.06201172 C116.5175716 591.43985012 117.68529148 593.81411422 118.85644531 596.18701172 C119.17097656 596.83283203 119.48550781 597.47865234 119.80957031 598.14404297 C122.07533932 602.71915346 124.53714514 607.14707158 127.09472656 611.56591797 C130.10620365 616.77014276 132.94151021 622.04170878 135.68066406 627.39404297 C136.40649344 628.8022884 137.13240505 630.21049146 137.85839844 631.61865234 C138.96618568 633.76947151 140.06810904 635.92253667 141.15551758 638.08374023 C142.23130985 640.21661741 143.32872168 642.33708521 144.43066406 644.45654297 C144.75161545 645.10742386 145.07256683 645.75830475 145.40324402 646.4289093 C146.91921027 649.30205036 147.78593043 650.84646429 150.88500977 652.01733398 C154.40857967 652.08103183 157.52360612 651.21664397 160.85644531 650.18701172 C161.5927417 649.96287598 162.32903809 649.73874023 163.08764648 649.5078125 C184.01003725 642.87595747 205.21624884 632.90135763 222.35644531 619.06201172 C223.08605469 618.48322266 223.81566406 617.90443359 224.56738281 617.30810547 C226.21698212 615.95517323 227.79677637 614.51770273 229.35644531 613.06201172 C229.35644531 612.40201172 229.35644531 611.74201172 229.35644531 611.06201172 C230.34644531 611.06201172 231.33644531 611.06201172 232.35644531 611.06201172 C232.45441406 611.66142578 232.55238281 612.26083984 232.65332031 612.87841797 C232.80285156 613.78462891 232.95238281 614.69083984 233.10644531 615.62451172 C233.37714844 617.27386719 233.37714844 617.27386719 233.65332031 618.95654297 C234.16803199 622.02400883 234.73196322 625.08000942 235.30957031 628.13623047 C238.81835208 646.97607142 240.90986383 665.87683628 240.35644531 685.06201172 C253.79914494 680.2057485 264.93638348 667.12055183 273.35644531 656.06201172 C273.75863281 655.54010254 274.16082031 655.01819336 274.57519531 654.48046875 C289.47369259 635.01348696 305.93557819 605.14507799 306.35644531 580.06201172 C303.15449615 563.40487729 294.02287807 547.77203304 284.35644531 534.06201172 C283.71787598 533.02262451 283.07930664 531.9832373 282.42138672 530.91235352 C280.66252893 528.83848991 279.69260674 528.14034767 277.01829529 527.51715088 C274.04291862 527.31628916 271.12321395 527.30933799 268.14160156 527.37060547 C267.0531041 527.37198013 265.96460663 527.3733548 264.84312439 527.37477112 C262.54416071 527.3838226 260.24521459 527.40743454 257.9465332 527.44458008 C254.43471802 527.49926611 250.92528206 527.50610952 247.41308594 527.50537109 C245.17673738 527.5201218 242.94040484 527.53760903 240.70410156 527.55810547 C239.13354759 527.56311317 239.13354759 527.56311317 237.53126526 527.56822205 C228.67834982 527.74034006 223.84759213 530.43902574 217.16894531 536.12451172 Z " fill="#360C3A" transform="translate(1954.6435546875,217.93798828125)"/>
<path d="M0 0 C0.99 0 1.98 0 3 0 C4.23583984 1.51855469 4.23583984 1.51855469 5.4609375 3.671875 C5.92540283 4.47077148 6.38986816 5.26966797 6.8684082 6.09277344 C7.3655835 6.9696582 7.86275879 7.84654297 8.375 8.75 C9.45646545 10.60601738 10.54119561 12.46013568 11.62890625 14.3125 C12.18723145 15.26382813 12.74555664 16.21515625 13.32080078 17.1953125 C15.87144318 21.45553056 18.58090645 25.60429635 21.3125 29.75 C26.14435531 37.1049146 30.85500095 44.52567156 35.5 52 C40.59370026 60.19203753 45.77653325 68.31497581 51.06176758 76.38452148 C57.39508054 86.0842692 63.4944161 95.93101375 69.60229492 105.77368164 C70.70713059 107.53350634 71.84739161 109.27108742 73 111 C74.485 110.505 74.485 110.505 76 110 C76.33 109.34 76.66 108.68 77 108 C77.66 108 78.32 108 79 108 C79.26167969 107.42121094 79.52335937 106.84242188 79.79296875 106.24609375 C81.07292739 103.86429369 82.51356054 102.07683354 84.3125 100.0625 C84.88613281 99.41410156 85.45976563 98.76570313 86.05078125 98.09765625 C88.75701482 95.18533676 91.58202124 92.40030619 94.41040039 89.60717773 C99.77459085 84.30771356 105.09056983 79.03656587 109.98828125 73.296875 C112.77756373 70.1122185 115.66955648 67.02791272 118.5625 63.9375 C119.46367554 62.97457031 119.46367554 62.97457031 120.38305664 61.9921875 C122.25458219 59.99405077 124.12723204 57.99697226 126 56 C128.43898604 53.39722056 130.87653123 50.79310355 133.3125 48.1875 C133.89725098 47.56222412 134.48200195 46.93694824 135.08447266 46.29272461 C139.13271697 41.95433506 143.10611958 37.55438985 147.0546875 33.125 C148.83499935 31.18024167 150.66923117 29.33383887 152.5625 27.5 C156.11123962 24.02536399 159.10151962 20.17636607 162.16796875 16.27734375 C164.28431153 13.64658077 166.55380664 11.32686685 169 9 C169.73734375 8.24203125 170.4746875 7.4840625 171.234375 6.703125 C172.04390625 5.87296875 172.8534375 5.0428125 173.6875 4.1875 C174.45449219 3.39730469 175.22148437 2.60710938 176.01171875 1.79296875 C178 0 178 0 180 0 C181.39715155 13.97146024 182.54837099 27.93901287 183.47265625 41.94921875 C183.60162304 43.86825041 183.73089717 45.78726143 183.86045837 47.70625305 C184.19622 52.68818296 184.52882918 57.6703173 184.8604126 62.65252686 C185.39365837 70.66087661 185.93060114 78.66897624 186.46990776 86.67691994 C186.6558406 89.44741338 186.83963426 92.21804267 187.02320862 94.98869324 C187.55888394 103.00838188 188.12047387 111.00895055 189 119 C189.62092529 118.179552 189.62092529 118.179552 190.25439453 117.3425293 C193.97467626 112.44834868 197.87590758 107.72895851 201.875 103.0625 C202.34389648 102.5144873 202.81279297 101.96647461 203.29589844 101.40185547 C211.01574581 92.43880512 219.01310708 83.80554137 227.375 75.4375 C228.24382813 74.55642578 229.11265625 73.67535156 230.0078125 72.76757812 C236.02443719 66.73760294 242.3533766 61.3184632 249 56 C250.25302101 54.94676029 251.50126047 53.88777474 252.7421875 52.8203125 C253.53496094 52.1396875 253.53496094 52.1396875 254.34375 51.4453125 C255.38961922 50.5435171 256.43381836 49.63978211 257.4765625 48.734375 C260.49947554 46.14544453 263.52224935 43.93778726 267 42 C266.3972803 45.53582471 265.45492488 48.55181074 263.99609375 51.82421875 C247.52349743 89.56250652 239.38740044 129.5645465 234.8996582 170.37329102 C234.79355225 171.33678467 234.68744629 172.30027832 234.578125 173.29296875 C234.48950195 174.1336792 234.40087891 174.97438965 234.30957031 175.84057617 C234 178 234 178 233 181 C227.02608091 179.86128179 221.08948912 178.58075771 215.16015625 177.23046875 C181.65761941 169.64254089 148.28068359 165.11470481 114 163 C112.68644531 162.91733887 111.37289063 162.83467773 110.01953125 162.74951172 C36.67716896 158.4624132 -35.99270324 171.96728606 -105 196 C-105.6879364 196.23956421 -106.3758728 196.47912842 -107.08465576 196.72595215 C-126.67216098 203.59290392 -145.19992729 212.63336287 -163.76953125 221.83984375 C-164.49749405 222.19987488 -165.22545685 222.55990601 -165.97547913 222.93084717 C-169.33141157 224.60628249 -172.60434297 226.33924748 -175.8269043 228.26000977 C-179 230 -179 230 -182 230 C-182.33209473 229.06841064 -182.66418945 228.13682129 -183.00634766 227.17700195 C-184.26399341 223.65415461 -185.52959048 220.13420443 -186.79736328 216.61499023 C-187.34048358 215.10402636 -187.88156833 213.59232893 -188.42041016 212.07983398 C-191.46013735 203.55218218 -194.66345018 195.23381428 -198.55761719 187.04956055 C-199.99493007 184.01071911 -201.34697655 180.94705091 -202.67578125 177.859375 C-213.21400353 153.40564916 -225.51976411 130.40175577 -241.66015625 109.12890625 C-243.89256677 106.1436628 -245.96286301 103.11921899 -248 100 C-243.92967561 100.62534092 -240.70251036 101.94933811 -237.01953125 103.7734375 C-235.86437012 104.34529785 -234.70920898 104.9171582 -233.51904297 105.50634766 C-232.28306327 106.12830782 -231.04755841 106.75121239 -229.8125 107.375 C-229.18506897 107.69023621 -228.55763794 108.00547241 -227.91119385 108.33026123 C-217.25801807 113.69505507 -206.98984296 119.47816999 -197 126 C-196.27731934 126.46583496 -195.55463867 126.93166992 -194.81005859 127.41162109 C-180.69209142 136.52863986 -166.89875913 146.21708947 -154 157 C-154.16429001 155.99364502 -154.32858002 154.98729004 -154.49784851 153.95043945 C-156.07204968 144.30679948 -157.6450794 134.66296901 -159.21705914 125.01896667 C-160.0246016 120.06496223 -160.83250933 115.11101802 -161.64135742 110.15722656 C-165.51178889 86.45094124 -169.33835324 62.73952712 -173 39 C-168.11783398 39.79628635 -165.03416621 41.84340742 -161.125 44.75 C-153.1649938 50.50926218 -145.07913573 56.06513094 -136.9375 61.5625 C-135.61448371 62.4568415 -134.29148602 63.35121053 -132.96850586 64.24560547 C-129.40856261 66.65133873 -125.84716754 69.05491493 -122.28540039 71.45794678 C-119.93284629 73.04531136 -117.58062981 74.63317505 -115.22851562 76.22119141 C-114.42009216 76.76699356 -113.6116687 77.31279572 -112.77874756 77.87513733 C-111.11651477 78.99739893 -109.45428334 80.11966254 -107.79205322 81.2419281 C-103.56945646 84.09262774 -99.34631198 86.94250978 -95.12207031 89.79077148 C-86.73799557 95.44479136 -78.36129112 101.10920639 -70 106.796875 C-67.64681123 108.39577629 -65.29346952 109.99445222 -62.94009399 111.59307861 C-61.44863641 112.60737404 -59.95804286 113.62294125 -58.46835327 114.63983154 C-56.42239353 116.03641906 -54.37362245 117.4287858 -52.32421875 118.8203125 C-51.72307251 119.23247009 -51.12192627 119.64462769 -50.50256348 120.0692749 C-48.00374294 121.7608528 -45.88129529 123.03956824 -43 124 C-42.70887329 123.15634888 -42.70887329 123.15634888 -42.41186523 122.2956543 C-38.38567542 110.63410364 -34.34488408 98.9778555 -30.2734375 87.33203125 C-29.94821609 86.40138351 -29.62299469 85.47073578 -29.28791809 84.5118866 C-26.64426854 76.94712612 -26.64426854 76.94712612 -25.35128784 73.25595093 C-22.13722319 64.08048379 -18.94867432 54.90064963 -15.90234375 45.66796875 C-13.19747995 37.48063548 -10.26329947 29.39059648 -7.25 21.3125 C-6.52454303 19.36620536 -5.80007215 17.41957379 -5.07879639 15.47172546 C-4.43552967 13.73454874 -3.78869877 11.99869297 -3.14160156 10.26293945 C-1.95303511 6.86576439 -0.955862 3.46870359 0 0 Z " fill="#360C3A" transform="translate(1876,27)"/>
<path d="M0 0 C0.92167969 0.28875 1.84335938 0.5775 2.79296875 0.875 C15.06360635 5.24482961 24.2787176 13.66067396 33 23 C33.25394531 22.02160156 33.50789063 21.04320312 33.76953125 20.03515625 C34.11703199 18.71089668 34.46469716 17.38668026 34.8125 16.0625 C34.97814453 15.42248047 35.14378906 14.78246094 35.31445312 14.12304688 C36.67135389 8.97706473 38.3074917 4.07752489 40 -1 C56.83 -1 73.66 -1 91 -1 C92.54167083 2.08334167 92.14060828 5.32618852 92.13371277 8.70974731 C92.13597833 9.51531661 92.13824388 10.3208859 92.14057809 11.15086639 C92.14693771 13.86637969 92.14608741 16.58184333 92.14526367 19.29736328 C92.14825442 21.2389889 92.15165676 23.18061392 92.15544128 25.12223816 C92.16430591 30.41488788 92.16662076 35.70752144 92.16725707 41.00017786 C92.16796755 44.31472472 92.1701021 47.62926748 92.17275429 50.94381332 C92.18202416 62.53220632 92.18608817 74.1205878 92.18530273 85.70898438 C92.18470532 96.46378667 92.19518642 107.21853826 92.2110464 117.97332776 C92.22420598 127.23141847 92.22948295 136.48949283 92.22884732 145.74759281 C92.22859428 151.26482283 92.23133541 156.78200806 92.24202538 162.29922867 C92.39986166 250.01849808 92.39986166 250.01849808 64.25 278.375 C46.86142546 295.19226253 26.40096665 304.43751783 3 310 C2.29085449 310.18191895 1.58170898 310.36383789 0.85107422 310.55126953 C-6.42006465 311.69567382 -13.96013896 311.30841485 -21.30419922 311.35009766 C-23.40620128 311.36647689 -25.50815201 311.39351999 -27.60986328 311.43212891 C-64.85460678 312.11080828 -95.70834726 298.90054117 -123 274 C-122.52660511 269.14770238 -120.13774769 266.05472918 -117.25 262.3125 C-116.25038202 260.98506735 -115.25172657 259.65690946 -114.25390625 258.328125 C-113.72555176 257.62880859 -113.19719727 256.92949219 -112.65283203 256.20898438 C-109.77724585 252.36580805 -106.98668511 248.46148088 -104.1875 244.5625 C-100.18647226 238.99401513 -96.13406454 233.47060714 -92 228 C-88.77274003 229.54844347 -86.30053757 231.30713346 -83.5625 233.625 C-75.27998613 240.29937614 -66.74319278 245.60834775 -56.8125 249.375 C-56.1839209 249.6136377 -55.5553418 249.85227539 -54.90771484 250.09814453 C-45.6168442 253.42094621 -36.58102833 254.36438076 -26.75 254.3125 C-25.09738159 254.30512817 -25.09738159 254.30512817 -23.41137695 254.29760742 C-6.72112529 254.05782262 9.92655757 250.33169788 22 238 C30.0839521 227.24988188 32.17848302 216.29353367 32.0625 203.125 C32.05573242 201.66320313 32.05573242 201.66320313 32.04882812 200.171875 C32.03710906 197.78118566 32.02070219 195.3906256 32 193 C31.41734375 193.49628906 30.8346875 193.99257812 30.234375 194.50390625 C9.06808716 212.04263847 -13.00970982 216.27590092 -39.73046875 214.79296875 C-59.37419418 212.69733098 -79.24480738 202.86003027 -94 190 C-94.91458984 189.28263672 -94.91458984 189.28263672 -95.84765625 188.55078125 C-101.41909252 184.12155287 -105.67288135 178.61293504 -110 173 C-110.62132812 172.19433594 -111.24265625 171.38867188 -111.8828125 170.55859375 C-129.86343082 146.08721411 -135.40415443 114.81695469 -131.22631836 85.08374023 C-128.05202762 66.25637995 -119.45090612 48.38655119 -107 34 C-106.30390625 33.08476563 -105.6078125 32.16953125 -104.890625 31.2265625 C-103.95476562 30.12441406 -103.95476562 30.12441406 -103 29 C-102.34 29 -101.68 29 -101 29 C-100.76667969 28.42636719 -100.53335937 27.85273437 -100.29296875 27.26171875 C-92.65622639 13.90318756 -69.81269344 4.31036485 -55.78369141 0.37890625 C-36.65405649 -4.60187936 -19.00721325 -6.08907388 0 0 Z M-51 61 C-51.66902344 61.4846875 -52.33804687 61.969375 -53.02734375 62.46875 C-57.80820556 66.23485559 -60.91869999 70.79582759 -64 76 C-64.57234375 76.92232422 -64.57234375 76.92232422 -65.15625 77.86328125 C-72.41641255 90.70606879 -72.42127507 106.50794451 -69.09375 120.48046875 C-64.82276334 134.22389367 -56.07094211 144.77650777 -43.51953125 151.75390625 C-29.96585397 158.4571978 -14.76604512 160.56275262 -0.03515625 156.2265625 C15.35451105 150.00731471 25.33889168 140.33692624 32.58984375 125.4921875 C35.40562289 118.51903916 36.36565898 112.19127013 36.3125 104.6875 C36.30686035 103.85081787 36.3012207 103.01413574 36.29541016 102.15209961 C36.01184297 87.66630847 30.53946656 74.7645137 20.484375 64.25390625 C7.28890404 52.28254345 -7.5072514 49.11005381 -24.76269531 49.82519531 C-34.77780167 50.6076938 -43.04064603 55.17421283 -51 61 Z " fill="#360C3A" transform="translate(2051,1822)"/>
<path d="M0 0 C6.36916459 5.34637903 12.48201285 11.00231198 16.67578125 18.24609375 C19.23909145 15.78531596 21.57056258 13.20470093 23.86328125 10.49609375 C35.84638019 -3.19160738 51.40836032 -12.08197281 69.67578125 -13.75390625 C92.15466348 -15.13038296 112.18808362 -10.18578601 129.59375 4.75 C144.85616042 19.2124496 153.41495178 39.06975311 154.94733238 59.94544792 C155.04041003 63.75065482 155.04766508 67.54511385 155.01635742 71.35131836 C155.01550828 72.79193606 155.01599187 74.23255504 155.01768494 75.673172 C155.01853513 79.53178272 155.00107042 83.39010566 154.97996306 87.24865031 C154.96103078 91.3004815 154.95943293 95.35232147 154.95588684 99.40419006 C154.94661446 107.05360212 154.92206681 114.7028834 154.89183837 122.35223824 C154.8581434 131.07066044 154.84177065 139.78908935 154.82675207 148.50756061 C154.79551214 166.42047874 154.74284667 184.33327568 154.67578125 202.24609375 C147.13079892 202.26922226 139.58582024 202.28701144 132.04081059 202.29790592 C128.5376924 202.30313364 125.0345984 202.31022925 121.53149414 202.3215332 C117.50797284 202.33443581 113.48447711 202.33932287 109.4609375 202.34375 C108.19741959 202.34891129 106.93390167 202.35407257 105.63209534 202.35939026 C104.47096725 202.35946579 103.30983917 202.35954132 102.11352539 202.35961914 C101.08538223 202.36183975 100.05723907 202.36406036 98.99794006 202.36634827 C96.67578125 202.24609375 96.67578125 202.24609375 95.67578125 201.24609375 C95.57401433 199.59031075 95.54225088 197.93018733 95.53775024 196.27128601 C95.53229691 195.19341324 95.52684357 194.11554047 95.52122498 193.00500488 C95.52018265 191.81185669 95.51914032 190.6187085 95.51806641 189.3894043 C95.51298569 188.14056961 95.50790497 186.89173492 95.50267029 185.60505676 C95.49193563 182.88058226 95.48294318 180.15615949 95.47655106 177.43167686 C95.46587493 173.11422528 95.44562628 168.79685223 95.4234314 164.47944641 C95.36150988 152.19914389 95.30764705 139.91884377 95.27441406 127.63842773 C95.25599457 120.86180004 95.22695839 114.08530186 95.18640935 107.30876952 C95.16544326 103.72573337 95.14989717 100.14285983 95.14760208 96.55975914 C95.14503012 92.54836766 95.11944246 88.53742355 95.09228516 84.52612305 C95.09529129 83.35524139 95.09829742 82.18435974 95.10139465 80.97799683 C94.96652474 67.49596479 92.36017114 58.08240159 82.92578125 48.43359375 C75.60050911 43.50312211 67.37196707 42.21552046 58.67578125 43.24609375 C49.64927558 45.11473878 42.48896268 47.61321716 37.21875 55.3984375 C31.41337371 65.72096537 31.37900625 77.7271995 31.35693359 89.28833008 C31.34688797 90.51917831 31.33684235 91.75002655 31.32649231 93.01817322 C31.30114991 96.34791198 31.28414475 99.67748539 31.27106428 103.00728059 C31.25528399 106.50398071 31.22854253 110.00059792 31.20303345 113.49723816 C31.15650642 120.09830995 31.11963738 126.69939781 31.08636057 133.30054826 C31.04417563 141.56435545 30.98888067 149.82806873 30.93359375 158.09179688 C30.83518254 172.80984386 30.75638232 187.52791456 30.67578125 202.24609375 C11.53578125 202.24609375 -7.60421875 202.24609375 -27.32421875 202.24609375 C-28.31242784 199.28146649 -28.4432514 197.38633921 -28.43101501 194.29652405 C-28.42874153 192.76393951 -28.42874153 192.76393951 -28.42642212 191.20039368 C-28.41968475 190.0798912 -28.41294739 188.95938873 -28.40600586 187.80493164 C-28.4029393 186.6240799 -28.39987274 185.44322815 -28.39671326 184.22659302 C-28.38767484 180.98430989 -28.37432886 177.74207414 -28.35974956 174.49981236 C-28.3460377 171.09814677 -28.33959489 167.69647 -28.332901 164.29478455 C-28.30877527 152.70909923 -28.2730836 141.12346501 -28.22827148 129.5378418 C-28.20360245 123.13996732 -28.18631149 116.74211337 -28.1767121 110.34419817 C-28.17127587 106.96349987 -28.16199153 103.58291036 -28.1433239 100.20225716 C-28.12397503 96.4187346 -28.11719256 92.63537224 -28.11303711 88.85180664 C-28.09989471 87.19838005 -28.09989471 87.19838005 -28.08648682 85.5115509 C-28.10176677 73.24346033 -29.66164258 62.3770926 -36.44921875 51.99609375 C-43.49552633 45.25614737 -51.73049886 42.88195479 -61.2578125 43.046875 C-70.80312934 43.6670166 -77.36902538 45.98026111 -84.2578125 52.76953125 C-89.67280334 59.25933123 -91.43134908 66.52440613 -91.47570801 74.85186768 C-91.4882235 76.52601242 -91.4882235 76.52601242 -91.50099182 78.23397827 C-91.50517624 79.44872833 -91.50936066 80.66347839 -91.51367188 81.91503906 C-91.52640129 83.88983777 -91.53913101 85.86463647 -91.55187225 87.8394351 C-91.5645948 89.95629831 -91.57492658 92.07316127 -91.58457947 94.19004059 C-91.60483333 98.60140205 -91.63247806 103.01269826 -91.66125488 107.42401123 C-91.7263761 117.57853236 -91.7819454 127.73310148 -91.83724213 137.88768005 C-91.8880576 147.20615019 -91.94087598 156.52459639 -92.00176764 165.84300685 C-92.03016727 170.23239961 -92.05374357 174.62178437 -92.07369232 179.01122332 C-92.08383357 181.07989582 -92.09621824 183.14853995 -92.1096344 185.2171936 C-92.12601696 187.7448819 -92.13879614 190.2725969 -92.14744568 192.80032349 C-92.15996117 194.45754929 -92.15996117 194.45754929 -92.17272949 196.14825439 C-92.17788322 197.1142519 -92.18303696 198.0802494 -92.18834686 199.07551956 C-92.32421875 201.24609375 -92.32421875 201.24609375 -93.32421875 202.24609375 C-112.46421875 202.24609375 -131.60421875 202.24609375 -151.32421875 202.24609375 C-151.32421875 132.94609375 -151.32421875 63.64609375 -151.32421875 -7.75390625 C-147.77278029 -8.46419394 -145.16257879 -8.87973604 -141.6574707 -8.88330078 C-140.7633699 -8.88645294 -139.8692691 -8.8896051 -138.94807434 -8.89285278 C-137.51971504 -8.88981644 -137.51971504 -8.88981644 -136.0625 -8.88671875 C-134.58199409 -8.88815384 -134.58199409 -8.88815384 -133.07157898 -8.88961792 C-130.99132218 -8.89029695 -128.91106324 -8.88846199 -126.83081055 -8.88427734 C-123.63781013 -8.87890809 -120.44494928 -8.88424048 -117.25195312 -8.890625 C-115.23046844 -8.88996451 -113.20898384 -8.88868394 -111.1875 -8.88671875 C-110.22918777 -8.88874298 -109.27087555 -8.89076721 -108.28352356 -8.89285278 C-106.95655708 -8.88812454 -106.95655708 -8.88812454 -105.6027832 -8.88330078 C-104.82288528 -8.88250519 -104.04298737 -8.88170959 -103.23945618 -8.88088989 C-101.32421875 -8.75390625 -101.32421875 -8.75390625 -99.32421875 -7.75390625 C-98.54638672 -5.43725586 -98.54638672 -5.43725586 -97.81640625 -2.40625 C-97.42001953 -0.78686523 -97.42001953 -0.78686523 -97.015625 0.86523438 C-96.74621094 2.00154297 -96.47679687 3.13785156 -96.19921875 4.30859375 C-95.92207031 5.44876953 -95.64492187 6.58894531 -95.359375 7.76367188 C-94.67362065 10.58945275 -93.99560273 13.41687031 -93.32421875 16.24609375 C-92.92227295 15.63773682 -92.52032715 15.02937988 -92.10620117 14.40258789 C-91.57357666 13.59942139 -91.04095215 12.79625488 -90.4921875 11.96875 C-89.9664917 11.17476807 -89.4407959 10.38078613 -88.89916992 9.56274414 C-80.3195191 -3.0573623 -68.31019094 -10.26145905 -53.375 -13.3671875 C-34.28735916 -15.78674761 -15.39858302 -11.78849554 0 0 Z " fill="#360C3A" transform="translate(1982.32421875,1486.75390625)"/>
<path d="M0 0 C151.70029674 0 151.70029674 0 185 31 C206.87690184 53.19985996 214.54289426 80.05066962 214.421875 110.70825195 C213.91675129 137.3119881 205.80175131 160.92634686 188 181 C187.07960938 182.04607422 187.07960938 182.04607422 186.140625 183.11328125 C167.16396636 203.34694078 139.92271123 212.30772888 113 215 C95.84 215 78.68 215 61 215 C61 249.32 61 283.64 61 319 C40.87 319 20.74 319 0 319 C0 213.73 0 108.46 0 0 Z M61 60 C61 91.02 61 122.04 61 154 C67.24434869 155.24886974 73.31593323 155.18600119 79.65234375 155.18530273 C81.83354115 155.18745901 84.01420648 155.20555069 86.1953125 155.22460938 C104.83600969 155.3005125 122.44596784 153.52700708 136.8125 140.4375 C137.534375 139.633125 138.25625 138.82875 139 138 C139.66 137.29875 140.32 136.5975 141 135.875 C149.27116513 123.98520013 150.09504189 111.03563227 149 97 C146.80287004 85.44937392 140.59643272 75.77108704 131 69 C109.91164259 55.80036539 84.9015689 60 61 60 Z " fill="#360C3A" transform="translate(1234,1370)"/>
<path d="M0 0 C1.36415039 0.00737183 1.36415039 0.00737183 2.75585938 0.01489258 C24.15604475 0.38094838 43.57934463 7.12343456 58.875 22.3125 C60.64788378 24.26028711 62.26791055 26.22328372 63.875 28.3125 C66.65868458 18.17206916 66.65868458 18.17206916 69.0625 7.9375 C69.875 4.3125 69.875 4.3125 70.875 3.3125 C87.705 3.3125 104.535 3.3125 121.875 3.3125 C121.875 72.6125 121.875 141.9125 121.875 213.3125 C111.74455648 214.43810484 111.74455648 214.43810484 108.33666992 214.45776367 C107.56945114 214.46414352 106.80223236 214.47052338 106.01176453 214.47709656 C105.21768692 214.47820938 104.42360931 214.4793222 103.60546875 214.48046875 C102.76204422 214.48379715 101.91861969 214.48712555 101.04963684 214.49055481 C99.28415466 214.49557721 97.51866314 214.4979646 95.75317383 214.49780273 C93.05209021 214.5000085 90.35140328 214.51826567 87.65039062 214.53710938 C85.92708472 214.54004046 84.20377689 214.54202716 82.48046875 214.54296875 C81.27417061 214.55374702 81.27417061 214.55374702 80.04350281 214.56474304 C72.5304471 214.53398299 72.5304471 214.53398299 69.875 212.3125 C68.87011719 209.97412109 68.87011719 209.97412109 68.171875 207.0859375 C67.9140625 206.0546875 67.65625 205.0234375 67.390625 203.9609375 C67.13796875 202.88070313 66.8853125 201.80046875 66.625 200.6875 C66.356875 199.59953125 66.08875 198.5115625 65.8125 197.390625 C65.1519239 194.7011366 64.50683078 192.00886003 63.875 189.3125 C63.41971924 189.84214355 62.96443848 190.37178711 62.49536133 190.91748047 C49.55893871 205.85554189 33.24857666 216.43283456 13.3203125 219.06640625 C-4.8416805 220.36369146 -21.48639043 219.40129508 -38.125 211.3125 C-38.72344727 211.02213867 -39.32189453 210.73177734 -39.93847656 210.43261719 C-48.4658341 206.24076149 -55.96675228 201.62860093 -63.125 195.3125 C-64.35283203 194.28189453 -64.35283203 194.28189453 -65.60546875 193.23046875 C-87.07583158 174.7559705 -101.7925802 147.09867798 -104.03515625 118.65625 C-105.24811797 87.01377034 -96.35755153 59.91925434 -75.875 35.6875 C-75.35518555 35.07052246 -74.83537109 34.45354492 -74.29980469 33.81787109 C-70.49806624 29.43685541 -70.49806624 29.43685541 -67.125 28.3125 C-67.125 27.6525 -67.125 26.9925 -67.125 26.3125 C-48.99789629 10.310185 -24.31224445 -0.15802043 0 0 Z M-27.125 69.3125 C-37.27001636 81.40147158 -42.77975287 95.13469198 -42.43359375 110.9765625 C-40.94199477 127.10093623 -34.71892778 140.80071437 -22.125 151.3125 C-9.44295826 161.1915557 5.14489634 164.00656709 20.875 162.3125 C29.43434235 160.69684471 36.81118843 157.3682046 43.875 152.3125 C44.64585937 151.76078125 45.41671875 151.2090625 46.2109375 150.640625 C56.90378025 142.10094853 62.95525049 128.65144919 64.875 115.3125 C66.12915001 99.07022938 62.58782416 83.58608597 51.890625 70.97265625 C49.96400141 68.96762356 47.98490116 67.12219478 45.875 65.3125 C45.34519531 64.84328125 44.81539062 64.3740625 44.26953125 63.890625 C23.94236862 47.6288949 -9.32232056 51.50982056 -27.125 69.3125 Z " fill="#360C3A" transform="translate(1776.125,1817.6875)"/>
<path d="M0 0 C1.78724487 0.00845947 1.78724487 0.00845947 3.6105957 0.01708984 C27.53268027 0.3465547 51.87064455 9.08864043 69.75 25.3125 C70.55695313 26.03824219 71.36390625 26.76398438 72.1953125 27.51171875 C85.94802312 40.55308227 95.06267945 55.8393674 100.5625 73.875 C100.75763184 74.51034668 100.95276367 75.14569336 101.15380859 75.80029297 C104.44745267 87.43124616 105.07506832 99.28905815 105 111.3125 C105.00773437 112.58222656 105.01546875 113.85195312 105.0234375 115.16015625 C105.02085937 116.38605469 105.01828125 117.61195312 105.015625 118.875 C105.01336914 119.96941406 105.01111328 121.06382813 105.00878906 122.19140625 C104.75 125.3125 104.75 125.3125 102.75 131.3125 C53.25 131.3125 3.75 131.3125 -47.25 131.3125 C-45.60063277 141.20870339 -40.19231182 150.07096607 -32.25 156.3125 C-17.33883987 166.87563745 -1.09954394 169.05743262 16.6875 166.81640625 C31.5549641 163.87941836 44.83233382 157.30789923 55.53515625 146.5 C57.75 144.3125 57.75 144.3125 59.75 144.3125 C60.984375 145.57910156 60.984375 145.57910156 62.5 147.453125 C65.92390759 151.4843855 69.58723779 155.17644016 73.375 158.859375 C73.97030518 159.4419104 74.56561035 160.0244458 75.17895508 160.62463379 C77.67014888 163.06223391 80.16306049 165.49760237 82.67431641 167.91455078 C84.5234233 169.6973984 86.35648757 171.49547446 88.1875 173.296875 C89.04819092 174.1141507 89.04819092 174.1141507 89.92626953 174.94793701 C91.49609375 176.50683594 91.49609375 176.50683594 93.75 179.3125 C93.63227862 183.83378236 90.19854466 186.21415936 87.109375 189.171875 C72.27991109 202.62642172 55.10699298 212.18743058 35.75 217.3125 C34.76 217.6425 33.77 217.9725 32.75 218.3125 C14.25084299 222.38822751 -4.60062323 222.69255181 -23.25 219.3125 C-24.07113281 219.17972656 -24.89226562 219.04695313 -25.73828125 218.91015625 C-50.54247297 214.28415246 -75.92488829 196.59806029 -90.25 176.3125 C-93.4957298 171.11669352 -96.40828167 165.7370412 -99.25 160.3125 C-99.59828857 159.68005371 -99.94657715 159.04760742 -100.30541992 158.39599609 C-103.07239835 153.20815552 -104.59281841 148.01983023 -105.9375 142.3125 C-106.14955078 141.46171875 -106.36160156 140.6109375 -106.58007812 139.734375 C-114.30864934 107.94239749 -108.04689717 75.99011305 -91.25 48.3125 C-74.92337851 23.47754745 -50.45827374 8.33071548 -21.79296875 1.74829102 C-14.50946453 0.26238744 -7.42003738 -0.03681357 0 0 Z M-37.25 66.3125 C-42.90216896 73.15984125 -45.06372348 78.55023956 -48.25 87.3125 C-16.9 87.3125 14.45 87.3125 46.75 87.3125 C42.91815388 74.53967959 37.49968724 65.48820297 25.890625 58.62109375 C5.73836652 48.00791194 -20.55293825 49.61543825 -37.25 66.3125 Z " fill="#360C3A" transform="translate(1549.25,1815.6875)"/>
<path d="M0 0 C21.12750736 16.51281496 35.48275013 40.15925997 39.875 66.75 C40.5758699 74.29910066 40.35739163 81.86802644 40.1875 89.4375 C40.16233235 91.42249728 40.13953444 93.40752606 40.11914062 95.39257812 C40.06493893 100.17918753 39.97915696 104.96422788 39.875 109.75 C32.16631696 110.79920719 24.59092706 110.8850974 16.81811523 110.86352539 C15.41779075 110.86324283 14.01746612 110.8634026 12.61714172 110.8639679 C8.84092242 110.86425318 5.0647353 110.85840015 1.28852344 110.85139394 C-2.66726341 110.84511541 -6.6230511 110.84455305 -10.57884216 110.84336853 C-18.0584018 110.84026843 -25.5379467 110.83207294 -33.01749986 110.82201904 C-41.53749607 110.81081676 -50.057493 110.8053371 -58.57749474 110.80032361 C-76.09333833 110.78988915 -93.6091676 110.77231543 -111.125 110.75 C-109.37836103 122.26252539 -102.91254688 130.28190149 -94.03515625 137.43359375 C-80.65919484 147.13297987 -63.04790548 148.66698494 -47.08203125 146.21875 C-31.23455318 143.03888526 -17.69091599 134.98716902 -6.125 123.75 C-1.25059613 127.84835616 3.38420222 132.08817553 7.90234375 136.57421875 C8.53612442 137.20229935 9.16990509 137.83037994 9.82289124 138.47749329 C11.14770717 139.79293796 12.47113361 141.10978342 13.79321289 142.42797852 C15.82451045 144.44945236 17.86622625 146.46002466 19.90820312 148.47070312 C21.1985711 149.75455091 22.48830793 151.03903343 23.77734375 152.32421875 C24.38972397 152.92425217 25.00210419 153.52428558 25.63304138 154.14250183 C29.875 158.4072747 29.875 158.4072747 29.875 161.75 C28.27430886 163.56411663 26.65873067 165.12437273 24.875 166.75 C24.2046875 167.40097656 23.534375 168.05195312 22.84375 168.72265625 C-2.0757127 192.2715485 -34.28114791 201.66665724 -67.984375 201 C-75.54672694 200.71845302 -82.77341631 199.4877429 -90.125 197.75 C-91.13626953 197.52449463 -91.13626953 197.52449463 -92.16796875 197.29443359 C-109.40556358 193.34209935 -126.28735807 184.99105616 -139.125 172.75 C-140.26388672 171.70972656 -140.26388672 171.70972656 -141.42578125 170.6484375 C-157.23661746 155.62950846 -166.06163928 137.77783922 -171.125 116.75 C-171.49431641 115.24373047 -171.49431641 115.24373047 -171.87109375 113.70703125 C-177.49239403 84.98024842 -171.74391103 53.46993034 -156.125 28.75 C-137.57683367 1.87796395 -112.27968503 -13.7529781 -80.23876953 -19.79418945 C-51.61376011 -23.98447427 -23.35544497 -16.84113705 0 0 Z M-103.125 47.75 C-107.62620705 53.890787 -109.66443184 59.36829552 -112.125 66.75 C-80.775 66.75 -49.425 66.75 -17.125 66.75 C-19.80373195 57.47608334 -19.80373195 57.47608334 -24.6875 50.125 C-25.47253906 49.10148437 -26.25757812 48.07796875 -27.06640625 47.0234375 C-28.08541016 45.89808594 -28.08541016 45.89808594 -29.125 44.75 C-29.785 44.75 -30.445 44.75 -31.125 44.75 C-31.125 44.09 -31.125 43.43 -31.125 42.75 C-42.86606867 33.19714653 -56.2567549 30.50241575 -70.99169922 31.51806641 C-83.10446013 32.8349722 -94.88151866 38.79347492 -103.125 47.75 Z " fill="#360C3A" transform="translate(2566.125,1836.25)"/>
<path d="M0 0 C22.93910836 19.34081685 36.05407032 44.2991329 39.375 74.1875 C41.57388476 101.47723048 41.57388476 101.47723048 37.75 109.125 C-12.41 109.125 -62.57 109.125 -114.25 109.125 C-107.05758462 126.3867969 -98.94147107 135.96174872 -81.84765625 143.1328125 C-64.78613457 148.98085487 -46.53858592 145.73937516 -30.25 139.125 C-22.14258075 135.15562553 -14.62879841 129.50379841 -8.25 123.125 C-5.25 123.125 -5.25 123.125 -3.91577148 124.3828125 C-3.42665283 124.99898437 -2.93753418 125.61515625 -2.43359375 126.25 C0.97054716 130.3124002 4.59040915 134.07316233 8.33984375 137.8125 C8.93286285 138.40450195 9.52588196 138.99650391 10.13687134 139.60644531 C11.98512815 141.44793739 13.83624181 143.28652574 15.6875 145.125 C16.95661373 146.3890885 18.22549589 147.65340956 19.49414062 148.91796875 C22.5767632 151.98966724 25.66250428 155.05820008 28.75 158.125 C26.86648412 162.26066589 24.07819414 164.92399392 20.75 167.9375 C20.16186523 168.47157471 19.57373047 169.00564941 18.96777344 169.5559082 C-5.19106532 191.18916961 -38.01324722 201.58700834 -70.25 199.875 C-94.62858297 197.66379066 -116.84686831 190.23603126 -136.25 175.125 C-137.24 174.465 -138.23 173.805 -139.25 173.125 C-139.25 172.465 -139.25 171.805 -139.25 171.125 C-139.81460937 170.89039063 -140.37921875 170.65578125 -140.9609375 170.4140625 C-153.67122472 163.25639222 -163.24363143 144.27634514 -168.25 131.125 C-168.60578125 130.19300781 -168.9615625 129.26101563 -169.328125 128.30078125 C-179.18924042 99.56372476 -177.10528176 67.06963445 -164.2109375 39.6796875 C-150.49221282 11.93402145 -128.33308591 -6.45796126 -99.5 -17.125 C-65.50611872 -27.66855676 -28.26160317 -21.86857281 0 0 Z M-104.25 46.125 C-109.44779869 52.90786997 -111.33093392 57.48920263 -113.25 66.125 C-82.23 66.125 -51.21 66.125 -19.25 66.125 C-21.20349389 54.40403665 -26.79289937 45.83649596 -36.15234375 38.66796875 C-43.96863661 33.37718565 -52.86064911 30.5454187 -62.25 30.125 C-63.466875 30.0425 -64.68375 29.96 -65.9375 29.875 C-80.0178184 30.15492681 -94.76552187 35.45751169 -104.25 46.125 Z " fill="#360C3A" transform="translate(1770.25,1494.875)"/>
<path d="M0 0 C23.56599558 19.86936882 36.40727483 45.30640409 39.375 76 C40.20294966 87.54613441 39.53087505 97.54931217 37.75 109.125 C-12.41 109.125 -62.57 109.125 -114.25 109.125 C-107.65390915 124.95561803 -100.14303652 135.50492966 -84.25 142.125 C-67.7997043 148.7381842 -48.39389461 146.78130963 -32.25 140.125 C-23.30933516 135.68135267 -15.34198998 130.17855101 -8.25 123.125 C-5.20418514 124.48613013 -3.11160974 126.01830096 -0.76660156 128.38134766 C0.22397247 129.37214828 0.22397247 129.37214828 1.23455811 130.38296509 C1.93574768 131.09447723 2.63693726 131.80598938 3.359375 132.5390625 C4.08618469 133.26870209 4.81299438 133.99834167 5.56182861 134.75009155 C7.87929198 137.0787388 10.1896995 139.41424826 12.5 141.75 C14.07115444 143.33118653 15.64276371 144.91192125 17.21484375 146.4921875 C21.06518653 150.3645669 24.90976117 154.24260171 28.75 158.125 C14.4298561 180.15788331 -12.79515946 191.86530027 -37.5625 197.375 C-52.95901044 200.54537088 -67.75856499 200.65469508 -83.25 198.125 C-84.35577393 197.94541748 -84.35577393 197.94541748 -85.48388672 197.76220703 C-112.6408989 193.09636012 -137.25913358 178.99862371 -154.25 157.125 C-157.53452985 152.29687095 -160.47592089 147.26090488 -163.25 142.125 C-163.5917627 141.49634033 -163.93352539 140.86768066 -164.28564453 140.2199707 C-177.96417188 114.08247086 -178.42880628 81.52692516 -169.97705078 53.77441406 C-165.09324614 38.89776922 -157.1929767 26.11130402 -147.25 14.125 C-146.42822266 12.96291016 -146.42822266 12.96291016 -145.58984375 11.77734375 C-145.14769531 11.23207031 -144.70554687 10.68679688 -144.25 10.125 C-143.59 10.125 -142.93 10.125 -142.25 10.125 C-142.25 9.465 -142.25 8.805 -142.25 8.125 C-103.11076179 -27.65070992 -42.56741586 -32.93828123 0 0 Z M-102.25 44.125 C-107.69169484 50.5977528 -113.25 57.3784581 -113.25 66.125 C-82.23 66.125 -51.21 66.125 -19.25 66.125 C-21.96495869 53.9076859 -27.00940313 45.46353848 -37.25 38.125 C-57.39166154 26.19821553 -85.00956355 27.01274524 -102.25 44.125 Z " fill="#360C3A" transform="translate(2419.25,1494.875)"/>
<path d="M0 0 C1.13787964 -0.00315216 2.27575928 -0.00630432 3.44812012 -0.009552 C4.6866272 -0.00752777 5.92513428 -0.00550354 7.20117188 -0.00341797 C8.46255981 -0.00437469 9.72394775 -0.00533142 11.02355957 -0.00631714 C13.69689325 -0.00699922 16.37013624 -0.00564076 19.04345703 -0.00097656 C22.47698878 0.00472073 25.91044237 0.00144152 29.34397125 -0.00454903 C32.6088743 -0.00902309 35.87376781 -0.0058943 39.13867188 -0.00341797 C40.37717896 -0.0054422 41.61568604 -0.00746643 42.89172363 -0.009552 C44.02960327 -0.00639984 45.16748291 -0.00324768 46.33984375 0 C47.34720581 0.00079559 48.35456787 0.00159119 49.39245605 0.00241089 C51.66992188 0.12939453 51.66992188 0.12939453 52.66992188 1.12939453 C52.76915146 2.63686251 52.79900442 4.1489545 52.80122375 5.65968323 C52.80523193 6.63921967 52.80924011 7.6187561 52.81336975 8.62797546 C52.81284103 9.71198135 52.81231232 10.79598724 52.81176758 11.9128418 C52.815242 13.04796204 52.81871643 14.18308228 52.82229614 15.3526001 C52.82967226 17.82986011 52.83500769 20.30712681 52.83858681 22.78439522 C52.84574079 26.71650176 52.86140403 30.64848266 52.87992859 34.58055115 C52.8862672 35.92854017 52.89259281 37.27652925 52.89890575 38.62451839 C52.90207157 39.29997924 52.90523738 39.97544008 52.90849912 40.67136943 C52.95047066 49.8258993 52.98346014 58.98039031 52.99584961 68.13500977 C53.00519541 74.97036655 53.03547277 81.80540419 53.07716942 88.64063835 C53.0894135 91.23705633 53.09461285 93.83351818 53.09237099 96.42996407 C52.64455441 123.66415922 52.64455441 123.66415922 64.63867188 147.30517578 C74.95078836 157.23603443 86.5408169 158.54196409 100.20898438 158.34033203 C108.85476612 158.0481717 114.92431363 155.42483201 121.85742188 150.33642578 C123.66992188 149.12939453 123.66992188 149.12939453 125.66992188 149.12939453 C125.66992188 148.46939453 125.66992188 147.80939453 125.66992188 147.12939453 C126.32992187 147.12939453 126.98992188 147.12939453 127.66992188 147.12939453 C128.07404297 146.29214844 128.07404297 146.29214844 128.48632812 145.43798828 C129.29526187 143.86016701 130.16075861 142.31042182 131.07226562 140.78955078 C131.57886719 139.93232422 132.08546875 139.07509766 132.60742188 138.19189453 C133.11144531 137.35787109 133.61546875 136.52384766 134.13476562 135.66455078 C138.14911193 126.42031819 139.1148507 116.81383542 139.08642578 106.83740234 C139.09930382 105.11058228 139.09930382 105.11058228 139.11244202 103.34887695 C139.13727429 99.59336017 139.14185878 95.83811052 139.14648438 92.08251953 C139.16080879 89.457898 139.17656837 86.83328394 139.19369507 84.2086792 C139.23198232 78.03731753 139.25635563 71.86599245 139.27481973 65.69454265 C139.31042916 53.95478621 139.37391119 42.21516761 139.43967819 30.47554779 C139.45881288 26.61710137 139.47050537 22.75868574 139.48110962 18.90020752 C139.49131313 16.55635508 139.50167031 14.21250331 139.51220703 11.86865234 C139.51324936 10.78928406 139.51429169 9.70991577 139.5153656 8.59783936 C139.52081894 7.62238159 139.52627228 6.64692383 139.53189087 5.64190674 C139.53444696 4.7895406 139.53700306 3.93717445 139.53963661 3.05897903 C139.66992188 1.12939453 139.66992188 1.12939453 140.66992188 0.12939453 C142.44438197 0.03045675 144.22278439 0.00140361 146 0 C147.13787964 -0.00315216 148.27575928 -0.00630432 149.44812012 -0.009552 C150.6866272 -0.00752777 151.92513428 -0.00550354 153.20117188 -0.00341797 C154.46255981 -0.00437469 155.72394775 -0.00533142 157.02355957 -0.00631714 C159.69689325 -0.00699922 162.37013624 -0.00564076 165.04345703 -0.00097656 C168.47698878 0.00472073 171.91044237 0.00144152 175.34397125 -0.00454903 C178.6088743 -0.00902309 181.87376781 -0.0058943 185.13867188 -0.00341797 C186.37717896 -0.0054422 187.61568604 -0.00746643 188.89172363 -0.009552 C190.02960327 -0.00639984 191.16748291 -0.00324768 192.33984375 0 C193.34720581 0.00079559 194.35456787 0.00159119 195.39245605 0.00241089 C197.66992188 0.12939453 197.66992188 0.12939453 198.66992188 1.12939453 C198.7724002 2.70830296 198.80511963 4.29178629 198.81036377 5.87400818 C198.81607391 6.90113922 198.82178406 7.92827026 198.82766724 8.98652649 C198.82934402 10.69197884 198.82934402 10.69197884 198.83105469 12.43188477 C198.83601959 13.62231384 198.8409845 14.81274292 198.84609985 16.03924561 C198.85824328 19.31922177 198.86567863 22.5991622 198.87011051 25.87915683 C198.87304235 27.93481708 198.87714791 29.99047177 198.88161469 32.04612923 C198.89531419 38.49504141 198.90496238 44.94394082 198.90881658 51.39286655 C198.9132694 58.801514 198.93067611 66.20997437 198.95981717 73.61856502 C198.98160809 79.36149789 198.99153043 85.1043789 198.99285769 90.84735256 C198.99389566 94.26741762 198.9995809 97.68730747 199.01767731 101.10732841 C199.15431493 131.4568385 195.91235502 160.6840424 174.66992188 184.12939453 C173.93257812 184.95955078 173.19523437 185.78970703 172.43554688 186.64501953 C154.9816975 205.23964338 128.38172965 215.55334598 103.16992188 216.41845703 C91.01566344 216.64744662 79.43569803 216.45185464 67.66992188 213.12939453 C66.54328125 212.82001953 65.41664063 212.51064453 64.25585938 212.19189453 C49.13573469 207.71185759 27.61930459 200.23342448 19.36914062 185.86376953 C19.13839844 185.29142578 18.90765625 184.71908203 18.66992188 184.12939453 C18.00992188 184.12939453 17.34992187 184.12939453 16.66992188 184.12939453 C11.36391609 177.82509385 7.38317334 170.44763941 3.66992188 163.12939453 C3.29996094 162.40236328 2.93 161.67533203 2.54882812 160.92626953 C-4.59293595 145.92022828 -6.65577072 129.53325802 -6.57299805 113.08129883 C-6.57489639 111.86166443 -6.57679474 110.64203003 -6.57875061 109.38543701 C-6.58178659 106.09078599 -6.57603911 102.79630616 -6.56579757 99.50167441 C-6.55691983 96.03886342 -6.55877623 92.57605553 -6.55915833 89.11323547 C-6.55822742 83.31627106 -6.54961297 77.51935962 -6.53588867 71.72241211 C-6.52007256 65.017015 -6.51489418 58.31167536 -6.51562423 51.60626096 C-6.51629813 44.44971574 -6.50937714 37.29319268 -6.50017762 30.13665414 C-6.49804486 28.076669 -6.49733632 26.01668742 -6.49693871 23.95670128 C-6.49575266 20.13623377 -6.48606275 16.31581457 -6.4753418 12.49536133 C-6.47579498 11.35210892 -6.47624817 10.20885651 -6.47671509 9.03096008 C-6.4724501 7.9980484 -6.46818512 6.96513672 -6.46379089 5.90092468 C-6.46211505 4.99823695 -6.46043921 4.09554922 -6.45871258 3.16550732 C-6.19838332 -0.9551596 -3.5241696 0.00278331 0 0 Z " fill="#360C3A" transform="translate(2175.330078125,1820.87060546875)"/>
<path d="M0 0 C20.13 0 40.26 0 61 0 C61.33 82.5 61.66 165 62 250 C105.39636846 249.96038003 105.39636846 249.96038003 148.79272461 249.90991211 C157.16711426 249.90539551 157.16711426 249.90539551 161.08180237 249.90455627 C163.8284431 249.90301605 166.57503863 249.89985869 169.32167053 249.89442444 C173.4708849 249.88632313 177.62006486 249.8860924 181.76928711 249.88647461 C183.00231284 249.8828765 184.23533857 249.87927839 185.50572872 249.87557125 C186.6154482 249.87694875 187.72516768 249.87832624 188.86851501 249.87974548 C189.84100661 249.87882369 190.81349821 249.8779019 191.81545925 249.87695217 C194 250 194 250 195 251 C195.09381302 252.84118029 195.11743954 254.68597641 195.11352539 256.52954102 C195.11344986 257.71068985 195.11337433 258.89183868 195.11329651 260.10877991 C195.10813522 261.3941716 195.10297394 262.67956329 195.09765625 264.00390625 C195.09553383 265.9661338 195.09553383 265.9661338 195.09336853 267.96800232 C195.0895441 271.45162859 195.07971446 274.93521339 195.06866455 278.41882324 C195.05844882 281.97126708 195.05387056 285.52371759 195.04882812 289.07617188 C195.03809212 296.05079832 195.0210166 303.02539717 195 310 C190.38481492 310.90302666 185.92397018 311.14182968 181.23738098 311.12698364 C180.47483039 311.12854363 179.7122798 311.13010362 178.92662162 311.13171089 C176.38180663 311.13568666 173.83705172 311.13254457 171.29223633 311.12939453 C169.4637295 311.13075005 167.63522295 311.13253084 165.80671692 311.13470459 C160.84834442 311.13925996 155.88999274 311.1374974 150.93161988 311.1343255 C145.74401942 311.13179328 140.55642073 311.13414175 135.36882019 311.13571167 C126.66067179 311.13753035 117.95253188 311.13513444 109.24438477 311.13037109 C99.16960402 311.12492393 89.09484349 311.12669564 79.02006322 311.1321975 C70.37283143 311.13673109 61.72560573 311.13737812 53.07837313 311.13475883 C47.91232546 311.13319808 42.74628731 311.1329969 37.58024025 311.13629532 C32.72689425 311.13917777 27.87357441 311.13719142 23.02023125 311.13140106 C21.23638579 311.1300757 19.45253814 311.13046381 17.66869354 311.13266373 C15.23965504 311.13538383 12.81070116 311.13198353 10.38166809 311.12698364 C9.31534038 311.13032973 9.31534038 311.13032973 8.2274707 311.13374341 C5.20076005 311.12160393 2.89727228 310.96575743 0 310 C0 207.7 0 105.4 0 0 Z " fill="#360C3A" transform="translate(1234,1721)"/>
<path d="M0 0 C1 1 1 1 1.12025452 3.24623108 C1.11803391 4.23884445 1.11581329 5.23145782 1.11352539 6.25415039 C1.11341209 7.93578026 1.11341209 7.93578026 1.11329651 9.65138245 C1.10813522 10.8711528 1.10297394 12.09092316 1.09765625 13.34765625 C1.0962413 14.58921982 1.09482635 15.83078339 1.09336853 17.10997009 C1.08870591 20.41605491 1.07971497 23.72207146 1.06866455 27.02813721 C1.05844827 30.3996115 1.05387045 33.77109283 1.04882812 37.14257812 C1.03777395 43.76173775 1.02101736 50.38086493 1 57 C0.18559448 56.93016907 -0.62881104 56.86033813 -1.46789551 56.78839111 C-2.54132202 56.6974115 -3.61474854 56.60643188 -4.72070312 56.51269531 C-6.3135614 56.37701141 -6.3135614 56.37701141 -7.93859863 56.23858643 C-23.26003049 55.0445301 -37.11159052 55.62445351 -50 65 C-55.04689756 69.49832174 -58.98946993 74.31374323 -61.625 80.5625 C-62.02976562 81.49191406 -62.43453125 82.42132812 -62.8515625 83.37890625 C-65.6768718 92.28727946 -66.29885997 101.35249674 -66.31884766 110.64355469 C-66.33391609 112.28478302 -66.33391609 112.28478302 -66.34928894 113.95916748 C-66.37986663 117.53006525 -66.39708481 121.10088896 -66.4140625 124.671875 C-66.43279462 127.1657982 -66.45236953 129.6597152 -66.4727478 132.15362549 C-66.52385897 138.68335294 -66.56359672 145.21310089 -66.60089111 151.74291992 C-66.64002408 158.41981422 -66.69209501 165.09661839 -66.7421875 171.7734375 C-66.83869771 184.8488983 -66.92355095 197.9244073 -67 211 C-74.54498233 211.02312851 -82.08996101 211.04091769 -89.63497066 211.05181217 C-93.13808885 211.05703989 -96.64118285 211.0641355 -100.14428711 211.07543945 C-104.16780841 211.08834206 -108.19130414 211.09322912 -112.21484375 211.09765625 C-113.47836166 211.10281754 -114.74187958 211.10797882 -116.04368591 211.11329651 C-117.204814 211.11337204 -118.36594208 211.11344757 -119.56225586 211.11352539 C-120.59039902 211.115746 -121.61854218 211.11796661 -122.67784119 211.12025452 C-125 211 -125 211 -126 210 C-126.09784411 207.30669231 -126.12993795 204.63903832 -126.12025452 201.94529724 C-126.12110894 201.09098037 -126.12196337 200.2366635 -126.12284368 199.35645825 C-126.12450111 196.4712606 -126.11897284 193.58612009 -126.11352539 190.70092773 C-126.11324355 188.64169313 -126.11340119 186.58245842 -126.1139679 184.52322388 C-126.11425599 178.91394913 -126.10835735 173.30469556 -126.10139394 167.69542575 C-126.09516237 161.8404137 -126.09455676 155.98540121 -126.09336853 150.13038635 C-126.09025463 139.03459239 -126.08204045 127.93880823 -126.07201904 116.84301859 C-126.06085972 104.21445826 -126.05534791 91.58589747 -126.05032361 78.95733345 C-126.03985789 52.97155019 -126.02225731 26.98577564 -126 1 C-122.10832119 0.42820068 -118.33367528 -0.12505429 -114.39746094 -0.12939453 C-113.56680115 -0.13254669 -112.73614136 -0.13569885 -111.88031006 -0.13894653 C-110.5705722 -0.13591019 -110.5705722 -0.13591019 -109.234375 -0.1328125 C-108.31916077 -0.13376923 -107.40394653 -0.13472595 -106.46099854 -0.13571167 C-104.53812592 -0.1363889 -102.61525097 -0.13456668 -100.69238281 -0.13037109 C-97.74539096 -0.12499159 -94.79854981 -0.13034424 -91.8515625 -0.13671875 C-89.97916633 -0.13605837 -88.10677025 -0.13477804 -86.234375 -0.1328125 C-85.35311951 -0.13483673 -84.47186401 -0.13686096 -83.56390381 -0.13894653 C-82.74585266 -0.13579437 -81.92780151 -0.13264221 -81.08496094 -0.12939453 C-80.00743561 -0.12820114 -80.00743561 -0.12820114 -78.90814209 -0.12698364 C-77 0 -77 0 -74 1 C-71.525 13.375 -71.525 13.375 -69 26 C-68.34 26 -67.68 26 -67 26 C-65.69083395 24.47846459 -65.69083395 24.47846459 -64.375 22.5 C-49.53424042 2.33360899 -24.53426452 -7.19107753 0 0 Z " fill="#360C3A" transform="translate(1592,1478)"/>
<path d="M0 0 C1 1 1 1 1.12025452 3.24623108 C1.11803391 4.23884445 1.11581329 5.23145782 1.11352539 6.25415039 C1.11341209 7.93578026 1.11341209 7.93578026 1.11329651 9.65138245 C1.10813522 10.8711528 1.10297394 12.09092316 1.09765625 13.34765625 C1.0962413 14.58921982 1.09482635 15.83078339 1.09336853 17.10997009 C1.08870591 20.41605491 1.07971497 23.72207146 1.06866455 27.02813721 C1.05844827 30.3996115 1.05387045 33.77109283 1.04882812 37.14257812 C1.03777395 43.76173775 1.02101736 50.38086493 1 57 C0.25959473 56.93016907 -0.48081055 56.86033813 -1.24365234 56.78839111 C-2.22285645 56.6974115 -3.20206055 56.60643188 -4.2109375 56.51269531 C-5.66185791 56.37701141 -5.66185791 56.37701141 -7.14208984 56.23858643 C-17.9323624 55.33778394 -28.77511986 55.01022413 -39 59 C-39.70125 59.26683594 -40.4025 59.53367187 -41.125 59.80859375 C-50.36499045 63.86913643 -56.9706816 70.87634654 -61 80 C-61.35258377 80.78227966 -61.70516754 81.56455933 -62.06843567 82.37054443 C-66.57162193 94.38090472 -65.58524954 107.19463251 -65.57421875 119.828125 C-65.58667562 122.43032771 -65.60101308 125.03252204 -65.61714172 127.63470459 C-65.65114836 133.75299108 -65.6685328 139.87110074 -65.6769169 145.98946929 C-65.69377307 157.62841575 -65.75305754 169.26721612 -65.80869484 180.90602875 C-65.82408047 184.73124656 -65.83123654 188.55640949 -65.83683777 192.38165283 C-65.84384833 194.70528186 -65.85094879 197.02891063 -65.8581543 199.35253906 C-65.85736122 200.95756538 -65.85736122 200.95756538 -65.85655212 202.59501648 C-65.8605603 203.56206009 -65.86456848 204.5291037 -65.86869812 205.52545166 C-65.87058403 206.79293936 -65.87058403 206.79293936 -65.87250805 208.08603287 C-66 210 -66 210 -67 211 C-86.14 211 -105.28 211 -125 211 C-125 141.7 -125 72.4 -125 1 C-121.47275298 0.2945506 -118.82154501 -0.130686 -115.33325195 -0.16113281 C-114.43915115 -0.17074036 -113.54505035 -0.1803479 -112.62385559 -0.19024658 C-111.19549629 -0.1966214 -111.19549629 -0.1966214 -109.73828125 -0.203125 C-108.25777534 -0.21167511 -108.25777534 -0.21167511 -106.74736023 -0.22039795 C-104.66711492 -0.22982204 -102.58685486 -0.2363716 -100.5065918 -0.24023438 C-97.31338003 -0.24999731 -94.12079679 -0.28106787 -90.92773438 -0.3125 C-88.90625382 -0.31902488 -86.88476867 -0.32427737 -84.86328125 -0.328125 C-83.90496902 -0.3404718 -82.9466568 -0.3528186 -81.95930481 -0.36553955 C-81.07466049 -0.36253845 -80.19001617 -0.35953735 -79.27856445 -0.35644531 C-78.49866653 -0.36009094 -77.71876862 -0.36373657 -76.91523743 -0.36749268 C-76.28320908 -0.24622009 -75.65118073 -0.12494751 -75 0 C-73.10675313 2.83987031 -72.57315171 4.25506753 -71.9296875 7.4921875 C-71.75566406 8.36230469 -71.58164063 9.23242188 -71.40234375 10.12890625 C-71.22832031 11.03511719 -71.05429688 11.94132812 -70.875 12.875 C-70.69324219 13.77347656 -70.51148437 14.67195313 -70.32421875 15.59765625 C-69.49563413 19.81533886 -68.90152045 23.68697804 -69 28 C-68.34 28 -67.68 28 -67 28 C-66.76925781 27.29488281 -66.53851562 26.58976562 -66.30078125 25.86328125 C-61.105853 14.42819894 -48.93154441 6.23871397 -37.71875 1.66015625 C-25.48305802 -2.59507821 -12.57175477 -3.68019317 0 0 Z " fill="#360C3A" transform="translate(2605,1478)"/>
<path d="M0 0 C1.09453491 -0.00315216 2.18906982 -0.00630432 3.31677246 -0.009552 C5.09646423 -0.00651566 5.09646423 -0.00651566 6.91210938 -0.00341797 C8.1253186 -0.00437469 9.33852783 -0.00533142 10.58850098 -0.00631714 C13.15747123 -0.00699864 15.7264432 -0.00514644 18.29541016 -0.00097656 C22.23929696 0.00437207 26.18306988 -0.00092261 30.12695312 -0.00732422 C32.61783879 -0.00666343 35.10872439 -0.00538226 37.59960938 -0.00341797 C38.78607056 -0.0054422 39.97253174 -0.00746643 41.19494629 -0.009552 C42.2894812 -0.00639984 43.38401611 -0.00324768 44.51171875 0 C45.47831421 0.00079559 46.44490967 0.00159119 47.4407959 0.00241089 C49.75585938 0.12939453 49.75585938 0.12939453 51.75585938 1.12939453 C51.75585938 70.42939453 51.75585938 139.72939453 51.75585938 211.12939453 C32.61585938 211.12939453 13.47585937 211.12939453 -6.24414062 211.12939453 C-8.03501034 209.33852482 -7.36671855 206.91460588 -7.37322193 204.53013223 C-7.37030909 203.71983688 -7.36739625 202.90954153 -7.36439514 202.07469177 C-7.36524957 201.2203749 -7.36610399 200.36605804 -7.36698431 199.48585278 C-7.36864174 196.60065513 -7.36311346 193.71551462 -7.35766602 190.83032227 C-7.35738417 188.77108766 -7.35754182 186.71185295 -7.35810852 184.65261841 C-7.35839662 179.04334366 -7.35249797 173.43409009 -7.34553456 167.82482028 C-7.339303 161.96980823 -7.33869738 156.11479574 -7.33750916 150.25978088 C-7.33439525 139.16398692 -7.32618108 128.06820276 -7.31615967 116.97241312 C-7.30500035 104.34385279 -7.29948854 91.71529201 -7.29446423 79.08672798 C-7.28399851 53.10094472 -7.26639794 27.11517017 -7.24414062 1.12939453 C-4.68325065 -0.15105045 -2.86703413 0.00235982 0 0 Z " fill="#360C3A" transform="translate(2171.244140625,1477.87060546875)"/>
<path d="M0 0 C8.14693292 5.76279703 13.53886091 14.74222658 15.4609375 24.52734375 C16.69951432 35.65924409 13.77442355 45.37088957 7.27734375 54.45703125 C0.4769697 62.20799522 -8.22287745 65.89995305 -18.36328125 66.76953125 C-29.53127585 67.04989932 -37.68027485 64.51533153 -46.5390625 57.52734375 C-53.66168349 50.28699349 -57.415047 40.87592643 -57.7890625 30.83984375 C-57.65335083 20.69162683 -53.81326274 12.36393875 -47.1640625 4.83984375 C-33.51684289 -7.18270686 -16.13521105 -9.35842241 0 0 Z " fill="#360C3A" transform="translate(2215.5390625,1385.47265625)"/>
</svg>
